<?xml version="1.0" encoding="UTF-8" standalone="no"?>
<!DOCTYPE svg PUBLIC "-//W3C//DTD SVG 1.1//EN" "http://www.w3.org/Graphics/SVG/1.1/DTD/svg11.dtd">
<svg width="100%" height="100%" viewBox="0 0 203 339" version="1.1" xmlns="http://www.w3.org/2000/svg" xmlns:xlink="http://www.w3.org/1999/xlink" xml:space="preserve" xmlns:serif="http://www.serif.com/" style="fill-rule:evenodd;clip-rule:evenodd;stroke-linejoin:round;stroke-miterlimit:2;">
    <g transform="matrix(1,0,0,1,-56.69,-56.69)">
        <path d="M164.87,108.13C164.87,116.84 173.87,123.94 182.68,123.94C189.158,123.945 195.012,119.966 197.39,113.94L198.39,114.44C198.39,114.47 198.39,114.5 198.39,114.53C198.39,122.759 205.161,129.53 213.39,129.53C221.618,129.53 228.39,122.759 228.39,114.53C228.39,106.301 221.619,99.53 213.39,99.53C210.794,99.559 208.247,100.248 205.99,101.53C208.567,95.7 214.369,91.922 220.743,91.922C226.875,91.922 232.498,95.42 235.21,100.92L234.7,92.52L253.12,73.31L231.4,148.86L83.91,148.86L62.1,73.31L80.1,92.52L80.1,100.92C82.812,95.42 88.435,91.922 94.567,91.922C100.941,91.922 106.743,95.7 109.32,101.53C107.059,100.248 104.509,99.559 101.91,99.53C93.681,99.53 86.91,106.301 86.91,114.53C86.91,122.759 93.682,129.53 101.91,129.53C110.139,129.53 116.91,122.759 116.91,114.53C116.91,114.5 116.91,114.47 116.91,114.44L117.91,113.94C120.267,119.982 126.134,123.971 132.62,123.94C141.33,123.94 150.14,116.84 150.14,108.13C150.14,101.13 145.03,95.52 138.03,95.52C135.572,95.527 133.17,96.254 131.12,97.61C131.963,93.635 134.386,90.168 137.83,88.01C141.13,85.91 144.83,86.41 148.34,86.91L152.34,88.32L150.14,84.91L148.03,81.91L157.44,56.69L167,81.91L164.79,84.91L162.7,88.32L166.7,86.91C170.21,86.41 173.91,85.91 177.11,88.01C180.583,90.157 183.041,93.623 183.92,97.61C181.862,96.264 179.459,95.538 177,95.52C170,95.52 164.9,101.12 164.9,108.13" style="fill:rgb(141,1,38);fill-rule:nonzero;"/>
    </g>
    <g transform="matrix(1,0,0,1,-56.69,-56.69)">
        <path d="M228.41,369C247.72,351.48 258.41,328.27 258.41,303.36L258.61,177.87L258.61,176.17L232.82,176.17L232.82,177.87L232.61,303.36C232.61,320.86 225.01,337.28 211.1,349.79C196.89,362.59 177.88,369.6 157.56,369.6C116.33,369.6 82.71,340.08 82.56,303.75L179.32,303.75L153.81,278.24L82.51,278.24L82.51,252.73L103.32,252.73L128.94,227.31L82.51,227.31L82.51,201.69L153.76,201.69L180,176.18L56.69,176.18L56.69,303.37C56.69,354.2 101.92,395.43 157.56,395.43C184.28,395.43 209.4,386.02 228.41,369.01" style="fill:rgb(141,1,38);fill-rule:nonzero;"/>
    </g>
    <g transform="matrix(1,0,0,1,-56.69,-56.69)">
        <path d="M192,303.76L227.62,303.76C227.62,303.76 183.08,259.14 164,240.12C181.91,222.31 220.43,183.68 227.94,176.12L191.78,176.12L138.15,229.76L127.94,240.07C149.26,261.28 170.67,282.4 191.99,303.71" style="fill:rgb(141,1,38);fill-rule:nonzero;"/>
    </g>
    <g transform="matrix(1,0,0,1,-56.69,-56.69)">
        <path d="M126.24,331.19L126.24,326.88C126.24,326.08 126.24,325.68 125.74,325.68C124.43,326.103 123.158,326.638 121.94,327.28C121.84,327.28 121.63,327.38 121.54,327.38C121.369,327.32 121.25,327.161 121.24,326.98C121.24,326.78 121.44,326.68 121.54,326.58C121.64,326.48 128.04,322.37 129.14,321.48C129.394,321.261 129.707,321.122 130.04,321.08C130.35,321.08 130.45,321.37 130.45,321.78C130.45,321.98 130.24,325.28 130.24,330.28L130.24,336.38C130.24,339.49 130.24,342.29 130.35,343.79C130.45,344.79 130.64,345.29 131.65,345.59C132.381,345.669 133.115,345.702 133.85,345.69C133.95,345.69 134.15,345.79 134.15,346.09C134.15,346.39 133.95,346.39 133.65,346.39C131.15,346.39 129.04,346.29 128.14,346.29C127.24,346.29 124.64,346.39 122.43,346.39C122.14,346.39 121.94,346.29 121.94,346.09C121.94,345.89 122.04,345.69 122.14,345.69C123.044,345.715 123.948,345.651 124.84,345.5C125.84,345.29 126.04,344.79 126.14,343.79C126.24,342.29 126.34,339.49 126.34,336.38L126.24,331.19Z" style="fill:rgb(141,1,38);fill-rule:nonzero;"/>
    </g>
    <g transform="matrix(1,0,0,1,-56.69,-56.69)">
        <path d="M154.36,330C154.36,339.2 146.36,345 142.25,346.91C142.064,346.991 141.862,347.025 141.66,347.01C141.499,347.006 141.365,346.88 141.35,346.72C141.388,346.494 141.539,346.301 141.75,346.21C146.96,342.853 150.155,337.098 150.25,330.9C150.25,325.1 147.86,322.59 145.25,322.59C142.95,322.59 141.35,324.69 141.35,327.49C141.35,332.49 144.55,333.7 145.75,333.7C146.503,333.732 147.254,333.598 147.95,333.31C148.36,333.1 148.46,332.9 148.66,332.9C148.86,332.9 148.86,333 148.86,333.2C148.833,333.35 148.763,333.488 148.66,333.6C147.479,334.651 145.929,335.194 144.35,335.11C144.24,335.116 144.13,335.119 144.02,335.119C140.525,335.119 137.65,332.243 137.65,328.749C137.65,328.729 137.65,328.71 137.65,328.69C137.65,324.3 141.05,321.1 146.05,321.1C151.46,321.1 154.36,325 154.36,330" style="fill:rgb(141,1,38);fill-rule:nonzero;"/>
    </g>
    <g transform="matrix(1,0,0,1,-56.69,-56.69)">
        <path d="M158.16,346.29C157.899,346.271 157.689,346.061 157.67,345.8C157.67,345.59 158.06,345.29 158.37,344.99C162.97,340.89 169.47,335.78 169.47,328.88C169.47,323.68 166.66,322.57 164.97,322.57C163.691,322.492 162.432,322.924 161.47,323.77C160.727,324.688 160.271,325.805 160.16,326.98C160.16,327.27 160.06,327.58 159.66,327.58C159.567,327.58 159.467,327.38 159.36,326.98C159.36,326.68 159.16,323.88 159.16,322.98C159.16,322.68 159.26,322.57 159.57,322.27C161.455,321.427 163.506,321.02 165.57,321.08C171.37,321.08 173.77,324.18 173.77,328.08C173.77,334.48 166.77,339.98 162.46,343.39C162.37,343.49 162.37,343.59 162.57,343.59L164.76,343.59C165.37,343.59 169.27,343.59 170.47,343.39C172.221,343.383 173.756,342.179 174.18,340.48C174.28,340.09 174.37,339.98 174.58,339.98C174.79,339.98 174.87,340.29 174.87,340.59C174.673,342.183 174.338,343.755 173.87,345.29C173.67,346.19 173.08,346.29 171.07,346.29L158.16,346.29Z" style="fill:rgb(141,1,38);fill-rule:nonzero;"/>
    </g>
    <g transform="matrix(1,0,0,1,-56.69,-56.69)">
        <path d="M180.18,346.29C179.58,345.99 179.58,345.69 179.58,344.99C179.513,343.589 179.547,342.186 179.68,340.79C179.78,340.48 179.78,340.19 180.08,340.19C180.38,340.19 180.28,340.38 180.28,340.79C180.28,344.29 182.48,345.19 184.78,345.19C187.38,345.19 190.29,343.49 190.29,339.19C190.29,333.88 184.48,331.78 181.88,331.39C181.48,331.28 181.28,331.19 181.28,330.69L182.08,322.07C182.08,321.68 182.38,321.57 182.68,321.57L190.78,321.57C191.385,321.6 191.991,321.57 192.59,321.48C192.827,321.468 193.061,321.431 193.29,321.37C193.49,321.37 193.59,321.48 193.59,321.98C193.549,323.388 193.412,324.791 193.18,326.18C193.09,326.38 192.99,326.58 192.78,326.58C192.57,326.58 192.49,326.38 192.49,326.18C192.49,325.28 192.28,324.38 189.68,324.38L183.68,324.38L183.18,328.38C188.08,329.18 194.09,331.89 194.09,337.58C194.09,341.99 190.88,346.79 183.28,346.79C182.226,346.795 181.179,346.626 180.18,346.29" style="fill:rgb(141,1,38);fill-rule:nonzero;"/>
    </g>
</svg>
