<?xml version="1.0" encoding="UTF-8" standalone="no"?>
<!DOCTYPE svg PUBLIC "-//W3C//DTD SVG 1.1//EN" "http://www.w3.org/Graphics/SVG/1.1/DTD/svg11.dtd">
<svg width="100%" height="100%" viewBox="0 0 512 512" version="1.1" xmlns="http://www.w3.org/2000/svg" xmlns:xlink="http://www.w3.org/1999/xlink" xml:space="preserve" xmlns:serif="http://www.serif.com/" style="fill-rule:evenodd;clip-rule:evenodd;stroke-linejoin:round;stroke-miterlimit:2;">
    <path d="M505,174.8L465.4,135.2C456,125.8 440.8,125.8 431.5,135.2L192,374.7L80.6,263.2C71.2,253.8 56,253.8 46.7,263.2L7,302.9C-2.4,312.3 -2.4,327.5 7,336.9L175,505C184.4,514.4 199.6,514.4 208.9,505L504.9,208.8C514.3,199.3 514.3,184.1 505,174.8ZM180.7,280.8C186.9,287.1 197.1,287.1 203.3,280.8L411.3,72.6C417.5,66.3 417.5,56.2 411.3,50L366.1,4.7C359.9,-1.6 349.7,-1.6 343.5,4.7L192,156.2L136.6,100.7C130.4,94.4 120.2,94.4 114,100.7L68.7,146C62.5,152.3 62.5,162.4 68.7,168.6L180.7,280.8Z" style="fill:white;fill-rule:nonzero;"/>
</svg>
